<svg xmlns="http://www.w3.org/2000/svg" viewBox="0 0 156.48 354.61"><defs><style>.cls-1{fill:none;}</style></defs><g id="デザイン"><rect class="cls-1" width="156.48" height="354.61"/><circle cx="62.6" cy="64.82" r="5.86"/><path d="M108.56,64.82a5.86,5.86,0,1,0-5.86,5.86A5.87,5.87,0,0,0,108.56,64.82Z"/><path d="M88.51,64.82A.81.81,0,0,0,87.7,64H77.6a.81.81,0,0,0-.81.81,5.86,5.86,0,0,0,11.72,0Z"/><path d="M28,65.38c5.19,4,11.56,1.28,18.91-8,10.53-13.25,24-21.63,38-23.6,10-1.4,20.44,1.44,27.33,7.44A22.84,22.84,0,0,1,120.31,59c0,10.09-3.78,18.64-10.94,24.74-6.42,5.46-15.54,8.85-25.66,9.53-13.13.89-18-4.16-21.51-7.84-1.79-1.86-3.33-3.47-5.46-3.77A6.23,6.23,0,0,0,51.3,83a5.17,5.17,0,0,0-1.59,4.13C50,90.55,54,96,76,96c1.55,0,3.18,0,4.91-.08,15-.49,27.68-4.69,36.61-12.14a34.9,34.9,0,0,0,13-27.11c0-11.47-6.86-18.35-12.61-22.11a46.44,46.44,0,0,0-24.44-7c-17.36,0-26.67,7.36-37,17C45.49,54.65,37.13,59.6,34.56,57.47a2.79,2.79,0,0,1-.74-2.8c.8-4,6.29-9.48,14.08-11.84,5.39-1.63,7.28-4.19,7.92-6.06A5.3,5.3,0,0,0,55.29,32c-2-2.82-6.14-2.32-9.25-1.41-.41.12-1,.34-1.67.59-2.87,1.06-8.21,3-9.64,1.05a1.79,1.79,0,0,1-.2-1.43c.72-3.63,7.87-10.68,15.94-15.72,6.45-4,9.84-7.53,10.09-10.44A4.09,4.09,0,0,0,59,1.18,4.38,4.38,0,0,0,55.27.06C52.7.45,49.76,2.92,47.61,6.5a36.65,36.65,0,0,0-2,4.06c-1.88,4.25-4.22,9.54-10.57,14.15-5.34,3.86-8.21,7.24-8.57,10a4,4,0,0,0,.93,3.18c2.1,2.53,6.08,1.88,10.64-1.73,3.61-2.86,6.29-2.94,7.58-2.74A3.81,3.81,0,0,1,48.3,35a2.51,2.51,0,0,1,.37,2.13C48,39.5,44.21,42.41,37,46.05,32,48.58,26.58,54.18,26,60A5.7,5.7,0,0,0,28,65.38Z"/><path d="M36.15,190.8a6.84,6.84,0,0,0-7.29-2,9.52,9.52,0,0,0-6.16,7.4,6,6,0,0,0,2.73,6c4.84,3.26,6.15,7.24,7.2,10.44,1.15,3.49,2,6.25,6.86,6.25,5.65,0,7.28-2,8.87-3.89a9,9,0,0,1,6-3.75c5.65-1.06,8.38-2.23,9.12-3.94a3.26,3.26,0,0,0-.56-3.13,3.35,3.35,0,0,0-2.46-1.76c-2.29-.21-4.87,2.49-7.15,4.88-.6.63-1.17,1.23-1.72,1.75a9.29,9.29,0,0,1-8,2,6.62,6.62,0,0,1-5-3.44c-.9-2-.47-4,0-6.1C39.31,198.42,40.09,194.84,36.15,190.8Z"/><path d="M22.52,244.08c.5,3.56,3.83,5.88,8.37,5.88h.58c6.65-.29,11.41-3.52,17.43-7.61,9.56-6.48,21.45-14.56,47.7-15.72,12.92-.56,21.34.86,25,4.24a6.28,6.28,0,0,1,2.13,4.47,4.71,4.71,0,0,1-1.35,4c-1.54,1.3-4.51,1.46-9.07.51-5-1.05-8.06-.92-9.64.41a3.9,3.9,0,0,0-1.22,3.32,3.53,3.53,0,0,0,1.56,3c2.31,1.54,7.12,1.07,13.55-1.31a38.43,38.43,0,0,1,10.95-1.89c6.4-.45,11.46-.8,11.12-9a13.9,13.9,0,0,0-5.24-10.44c-6.89-5.74-20.1-7.75-36.25-5.5-11.67,1.62-26.42,8-38.28,13.06-11.42,4.92-21.28,9.15-22.7,6.62a1.57,1.57,0,0,1,0-1.45c2.13-5.36,25.61-13.87,39.15-18.06,10.56-3.27,45.8-14.56,55.48-22.41,3.12-2.53,4.66-5.77,4.13-8.66a5.22,5.22,0,0,0-3.53-4.09c-2.77-.9-6.23.34-9.49,3.43l-.72.68c-13.32,12.63-27.1,25.68-71.77,36.47-9.7,2.34-17.4,5.7-22.28,9.72C24.1,237,22.06,240.81,22.52,244.08Z"/><path d="M71,275.32c-9.56,1.36-20.62,4.34-23,8.63a3.51,3.51,0,0,0-.15,3.27c.78,1.79,2.76,2.45,5.42,2.45,3.88,0,9.21-1.4,14.43-2.78s10.36-2.72,14-2.72c4,0,8.67,1,13.22,1.95,6.55,1.37,12.2,2.56,14.68.73a3.13,3.13,0,0,0,1.24-2.33,3.08,3.08,0,0,0-1.06-2.65c-5.85-5.3-33.07-.21-33.34-.15l-2.4.47c-4.84,1-9,1.8-10.29.82a1,1,0,0,1-.38-.76c-.16-3.14,10.84-6,21.8-7.5,8.77-1.18,14.15-3.12,16-5.77a3.7,3.7,0,0,0,.61-3,3.92,3.92,0,0,0-1.93-2.49c-4.24-2.55-14.68-1.37-23.16.93l-.06,0c-7.79,2.11-12.49,3.39-13.12,2,0,0,0,0,0-.12.88-1.69,14.79-5.6,22.37-6.92,4-.7,9.15-2.13,10.93-5a4,4,0,0,0,.42-3.43c-1.69-5.67-11.47-3.71-17.15-2-7.92,2.33-10.51,2.56-11.55,1a1.15,1.15,0,0,1-.1-1.2c.54-1.2,3-2.65,7.29-3.19,3.44-.44,5.68-1.48,6.31-2.93a2.36,2.36,0,0,0-.41-2.41,3.11,3.11,0,0,0-2.34-1.29c-2-.16-4.8,1.13-7.2,3.42-2.89,2.77-3.48,3-9.17,4.91-2,.68-3.28,1.82-3.55,3.22a3.17,3.17,0,0,0,1.2,3c1.63,1.41,5.12,2.29,10,.55,9.3-3.29,15.39-3.52,16.71-.61a1.32,1.32,0,0,1,0,1.22c-.84,1.65-4.78,3.3-11.09,4.65l-2,.41c-6.61,1.36-17.67,3.64-20.11,7.35a2.75,2.75,0,0,0-.44,2.11,2.7,2.7,0,0,0,1.49,1.9c4.26,2.26,16-1.7,19.79-3.27,5.08-2.1,12.1-2.62,15-1.11a2,2,0,0,1,1.15,1.25,1.29,1.29,0,0,1-.26,1.08C89,271.67,79.27,274.15,71,275.32Z"/><path d="M37.79,319.22c2.59,0,5.84-2.45,9.27-5a49,49,0,0,1,5.75-3.92,40.7,40.7,0,0,1,6.86-2.53c5.65-1.71,11.48-3.49,10.25-8.81-.55-2.39-1.67-3.76-3.32-4.06-3.1-.57-7,2.82-8.65,5.28-.29.44-.59.93-.9,1.44-2,3.28-4.74,7.78-11.8,7-5.15-.52-5.9-4.52-6.61-8.39a16,16,0,0,0-1.52-5.11,9.05,9.05,0,0,0-5.93-4.6,8.07,8.07,0,0,0-6.55,1.8,7.54,7.54,0,0,0-3.16,6.1,7.84,7.84,0,0,0,3.33,6.22l.05,0c.06,0,5.82,2.38,9.23,11.41a4.31,4.31,0,0,0,2.69,3A3.38,3.38,0,0,0,37.79,319.22Z"/><path d="M146.16,284c-9.19-3.1-26.63,4.3-35.69,10.84-6.23,4.5-12.23,6.38-16.46,5.18a6.21,6.21,0,0,1-4.2-3.65,7.56,7.56,0,0,0-4.13-4.51,6,6,0,0,0-4.91.43c-2.58,1.31-3.85,4.68-3,8,.71,2.85,2.36,5.4,14.6,5.4,5.94,0,11.34-3.59,17.07-7.39,5.9-3.91,12-8,19.33-8.66,6.4-.61,9.25,2.06,9.77,4.76.65,3.32-2,7.65-8.24,9.52-4.75,1.42-12.68,2.63-21.86,4-11.55,1.76-24.64,3.76-34.58,6.71-16.8,5-30.6,17.88-34.31,23-2,2.79-3.81,7.58-3,11.49a6.31,6.31,0,0,0,3.1,4.33,8.17,8.17,0,0,0,4.06,1.11,8.56,8.56,0,0,0,2.37-.35c3.89-1.14,7.75-5.08,11.14-11.41.85-1.58,1.59-3.35,2.38-5.22,4.32-10.3,9.71-23.13,39.13-25.18,28.2-2,46.75-4.76,52.12-12.54,1.88-2.72,2.19-6,.95-10.1A8.42,8.42,0,0,0,146.16,284Z"/><path d="M152.29,169.25c-1.62-2.12-5-2.58-9.67-3.24-8.24-1.14-20.69-2.87-32.47-16-4.28-4.77-6.11-8.48-5.6-11.37.62-3.48,4.45-5.52,8.89-7.87a48.31,48.31,0,0,0,7.19-4.36,16.9,16.9,0,0,0,6.29-15.86,17.09,17.09,0,0,0-10.13-13.67c-8.19-3.33-15.68-1.71-24.35.17l-2.84.61c-9.76,2-26.08,2.25-32.59,1-9.25-1.81-13.08-6.24-16.47-10.14-2.86-3.3-5.33-6.15-10.33-6.94a7.76,7.76,0,0,0-7.56,3.1,5.41,5.41,0,0,0-.45,5.9,8,8,0,0,0,4,3.35C31,96,39.25,97.29,46.56,98.38a94.8,94.8,0,0,1,12.2,2.29c1.85.61,2.89,1.59,2.92,2.76S60.6,106,58.9,106.62c-11.43,4.47-38,15.76-37.65,24.12.12,3,2.76,3.78,6.11,4.69,4,1.1,9,2.47,12.52,8.25.89,1.47,1.69,2.82,2.42,4,4.48,7.53,6.14,10.36,10.29,9.66,4.52-.75,7-5.07,7.68-13.6.79-9.37,13.8-41.63,36.82-44.7,6.09-.81,16.73-.58,19.71,10.07a1.84,1.84,0,0,1-.54,1.88,1.82,1.82,0,0,1-1.94.35c-4.72-1.85-13.68-4.66-20.53-2.57-4.38,1.34-5.33,3.91-4.82,5.71.56,2,3,3.53,6.38,2.63a19.74,19.74,0,0,0,4.83-2.24c2.21-1.28,4.31-2.5,7.13-2.5s6.3.72,7.88,2.73a4.31,4.31,0,0,1,.67,3.88c-.44,1.85-2.08,3.53-4.61,4.75-4.15,2-9.78,2.33-13.08.79-3.78-1.75-8.87-3.58-11.69-2.31a3.29,3.29,0,0,0-1.84,2.17,4.09,4.09,0,0,0,.56,3.78c1.42,1.82,4.73,2.69,9.54,2.52,3.78-.14,7.14-.39,10-.77a1.07,1.07,0,0,1,.85,1.86c-3.66,3.28-11,8.13-25.24,12.65-15.15,4.81-16.14,6.94-17.77,10.46a18.78,18.78,0,0,1-3.77,5.67c-4.31,4.58-10.31,4.83-16.66,5.09-2.22.09-4.5.18-6.76.46-4.56.57-8.11,2.74-9,5.51a3.78,3.78,0,0,0,1,4c2.66,2.56,6.35,1.44,12.73-3.86,5.71-4.74,24.67-10.6,32-7.92,2.17.8,3.36,2,3.43,3.57.1,1.86-1.55,4-3.92,5.18-.43.21-.87.4-1.3.59-2.42,1.06-4.93,2.16-4.93,5.62,0,2,1.91,3,3.93,4,2.47,1.26,5.28,2.69,5.28,6.35,0,2.19-1.11,3.73-3,4.11a5.5,5.5,0,0,1-5.92-3.4c-1.11-2.56-3.88-5.71-7.32-6.56a6.54,6.54,0,0,0-5.83,1.33c-2.12,1.71-2.2,3.46-1.9,4.62.67,2.58,4,5,7.65,5.64a17.46,17.46,0,0,1,7,3c2,1.26,3.81,2.45,6.9,2.45l.77,0c3.39-.21,5-2.6,6.63-4.91,1.31-1.89,2.66-3.85,5-4.6,4-1.28,7.35.34,10.55,1.92,1.07.52,2.17,1.06,3.28,1.49,3,1.14,5.33-.25,6.12-2.21a2.81,2.81,0,0,0-1.4-3.86c-3.47-1.47-4.68-1.73-8.61-.92-.71.14-1.6.22-1.89-.25-.39-.63.3-2.25,1.77-4.12a9.59,9.59,0,0,0,1.82-7.28,7.66,7.66,0,0,0-3.79-5.25c-.89-.54-1.37-1.1-1.45-1.7-.15-1.09,1-2.32,2.24-3.62,1.68-1.79,3.59-3.81,3-6.23a3.14,3.14,0,0,0-1.39-2.08c-1.31-.74-3.18-.2-5.34.43a16.09,16.09,0,0,1-6.31.93c-2.64-.35-4.54-1.37-5.51-3a5.69,5.69,0,0,1-.23-5c2.4-6.66,13.46-5,18.1-4,8.74,1.92,14.68,8.65,19.56,14.8l.14.17c5.1,6.43,12.82,16.15,24.29,18.38,4.77.93,10.75.5,13.23-3.49A5.84,5.84,0,0,0,152.29,169.25Zm-91-51.58c-.36.52-.75,1-1.15,1.62-2,2.75-4.49,6.18-5.58,10.65a43.63,43.63,0,0,0-.76,5.68c-.43,4.53-.92,9.66-3.55,10.59-3.29,1.18-6.29-1.82-9.76-5.3-.59-.59-1.19-1.2-1.82-1.8-.86-.84-1.64-1.52-2.33-2.13-2.51-2.21-3.77-3.32-3.77-7,0-5.92,17.36-17.48,23-19.67a7.28,7.28,0,0,1,2.63-.52,4.51,4.51,0,0,1,3.64,1.6C63.08,113,62.87,115.33,61.26,117.67Z"/><polygon points="156.32 82.73 146.8 82.73 146.8 84.49 149.81 84.49 149.81 88.4 151.56 88.4 151.56 84.49 156.32 84.49 156.32 82.73"/><rect x="146.8" y="88.4" width="9.52" height="1.76"/><path d="M151.56,80.74V75.82h-1.75v2.63a3.19,3.19,0,0,1-1.4-2.63,3.15,3.15,0,0,1,.92-2.24,3.11,3.11,0,0,1,2.23-.93,3.16,3.16,0,0,1,2.22,5.4L155,79.3a4.89,4.89,0,1,0-3.46,1.44Z"/><path d="M139.5,70.89a4.9,4.9,0,0,0-4.89,4.93A4.94,4.94,0,0,0,136,79.3l1.24-1.25a3.17,3.17,0,0,1,0-4.47,3.13,3.13,0,0,1,4.44,0,3.17,3.17,0,0,1,0,4.48L143,79.3a4.92,4.92,0,0,0-3.47-8.41Z"/><path d="M134.61,95a3.71,3.71,0,0,0,3.69,3.72h6V97h-6a2,2,0,0,1,0-3.91h6V91.3h-6A3.71,3.71,0,0,0,134.61,95Z"/><path d="M134.74,106a2.81,2.81,0,0,0,5.2,1.52,2.87,2.87,0,0,0,1.51.44,2.83,2.83,0,0,0,2.82-2.84v-3.65h-9.53Zm5.64-2.77h2.14v1.89a1.07,1.07,0,0,1-2.14,0Zm-3.89,0h2.14V106a1.07,1.07,0,1,1-2.14,0Z"/><polygon points="134.74 89.14 136.49 89.14 136.49 84.56 144.27 84.56 144.27 82.8 134.74 82.8 134.74 89.14"/><path d="M141.26,112.12l-.29-.36a1,1,0,0,0-.52.88,1.11,1.11,0,0,0,.29.78,1.7,1.7,0,0,0,.81.39l1.74.47v-.51l-1.62-.43a1.19,1.19,0,0,1-.59-.27.57.57,0,0,1-.17-.41A.59.59,0,0,1,141.26,112.12Z"/><path d="M140.77,115.75l-.28-.07v.48l2.12.56v-.48l-1.19-.32a.64.64,0,0,1-.53-.58.31.31,0,0,1,.33-.36.76.76,0,0,1,.21,0l1.18.31v-.48l-1.16-.31a1.68,1.68,0,0,0-.37-.06.59.59,0,0,0-.63.64A.9.9,0,0,0,140.77,115.75Z"/><path d="M141.16,118.59c.31,0,.46-.26.59-.58s.17-.34.28-.34.24.12.24.33a1,1,0,0,1-.23.58l.31.26a1.3,1.3,0,0,0,.3-.81.74.74,0,0,0-.7-.83c-.33,0-.46.26-.61.61s-.16.31-.26.31-.25-.15-.25-.34a1,1,0,0,1,.29-.68l-.29-.29a1.31,1.31,0,0,0-.38.93A.75.75,0,0,0,141.16,118.59Z"/><path d="M143.18,119.81l-.57-.16v-.27l-.42-.11v.27l-1.07-.28a.73.73,0,0,0-.25,0c-.24,0-.41.19-.41.53a1,1,0,0,0,.07.39l.42.11a.84.84,0,0,1-.06-.3c0-.14.05-.22.16-.22l.12,0,1,.27v.57l.42.11v-.57l.57.16Z"/><path d="M142.49,122.6l-.39.08a1.54,1.54,0,0,1,.12.58c0,.33-.13.47-.32.47a.84.84,0,0,1-.18,0h0a2.54,2.54,0,0,0,.1-.66,1,1,0,0,0-.26-.72.69.69,0,0,0-.5-.2.59.59,0,0,0-.58.64.9.9,0,0,0,.32.69l-.28-.07v.47l1.18.31a1.18,1.18,0,0,0,.31,0c.41,0,.65-.29.65-.85A2,2,0,0,0,142.49,122.6Zm-1.09,1-.1,0a.71.71,0,0,1-.5-.65c0-.21.11-.35.28-.35a.36.36,0,0,1,.26.11.56.56,0,0,1,.14.41A1.88,1.88,0,0,1,141.4,123.62Z"/><polygon points="142.61 127.61 141.17 126.76 142.61 126.72 142.61 126.23 140.48 126.34 140.48 126.77 141.92 127.63 140.48 127.72 140.48 128.15 142.61 129.41 142.61 128.93 141.16 128.1 142.61 128.03 142.61 127.61"/><path d="M140.49,129.9l1.19.32a.64.64,0,0,1,.53.58c0,.23-.12.37-.33.37a.76.76,0,0,1-.21,0l-1.18-.32v.49l1.16.3a1.72,1.72,0,0,0,.37.07.6.6,0,0,0,.63-.64.94.94,0,0,0-.31-.65l1.07.29v-.48l-2.92-.78Z"/><polygon points="142.93 133.2 143.39 133.33 143.39 132.81 142.93 132.68 142.93 133.2"/><polygon points="142.61 132.61 140.49 132.05 140.49 132.53 142.61 133.1 142.61 132.61"/><path d="M142,133.6c-.33,0-.46.26-.61.61s-.16.31-.26.31-.25-.15-.25-.34a1,1,0,0,1,.29-.68l-.29-.29a1.31,1.31,0,0,0-.38.93.75.75,0,0,0,.71.85c.31,0,.46-.26.59-.58s.17-.34.28-.34.24.12.24.32a.93.93,0,0,1-.23.58l.31.27a1.3,1.3,0,0,0,.3-.81A.74.74,0,0,0,142,133.6Z"/><path d="M142.61,136.47V136l-2.76-.74v.49l1,.27a.74.74,0,0,0-.42.71,1.16,1.16,0,0,0,.34.79,1.37,1.37,0,0,0,1,.38.82.82,0,0,0,.9-.82,1,1,0,0,0-.32-.68Zm-.9.92a.89.89,0,0,1-.64-.26.63.63,0,0,1-.2-.47.51.51,0,0,1,.53-.53.87.87,0,0,1,.61.26.72.72,0,0,1,.22.5A.48.48,0,0,1,141.71,137.39Z"/><path d="M141.37,138.38a.87.87,0,0,0-.92,1,1.21,1.21,0,0,0,.29.82l.31-.23a.84.84,0,0,1-.21-.54.5.5,0,0,1,.54-.55v1.53a1.22,1.22,0,0,0,.45.1.78.78,0,0,0,.82-.85,1.17,1.17,0,0,0-.36-.85A1.29,1.29,0,0,0,141.37,138.38Zm.48,1.63-.15,0v-1.1a1,1,0,0,1,.35.21.7.7,0,0,1,.2.49A.38.38,0,0,1,141.85,140Z"/><path d="M142.13,141.68l.48.12v-.48l-2.12-.57v.49l.79.21a1,1,0,0,1,.85,1v0l.51.14A1,1,0,0,0,142.13,141.68Z"/><polygon points="140.49 142.76 141.05 142.91 141.05 142.38 140.49 142.23 140.49 142.76"/><polygon points="136.18 111.98 136.18 112.48 138.98 113.23 138.98 112.73 136.18 111.98"/><path d="M136.18,115.12l1.19.31a.65.65,0,0,1,.53.58c0,.23-.12.37-.33.37a.89.89,0,0,1-.22,0l-1.17-.31v.48l1.16.3a1.21,1.21,0,0,0,.37.07.6.6,0,0,0,.63-.64,1,1,0,0,0-.31-.65l1.07.29v-.48l-2.92-.78Z"/><path d="M137.06,117.39a.87.87,0,0,0-.92,1,1.21,1.21,0,0,0,.29.82l.31-.24a.82.82,0,0,1-.21-.54.49.49,0,0,1,.54-.54v1.53a1.2,1.2,0,0,0,.45.09.78.78,0,0,0,.82-.84,1.25,1.25,0,0,0-.36-.86A1.36,1.36,0,0,0,137.06,117.39Zm.48,1.62a.34.34,0,0,1-.15,0V117.9a.75.75,0,0,1,.34.21.65.65,0,0,1,.21.48A.37.37,0,0,1,137.54,119Z"/><path d="M137.22,120a.67.67,0,0,0-.5-.2.58.58,0,0,0-.58.63.91.91,0,0,0,.32.7l-.28-.07v.47l1.18.31a1.18,1.18,0,0,0,.31,0c.41,0,.65-.3.65-.85a1.93,1.93,0,0,0-.14-.75l-.39.08a1.5,1.5,0,0,1,.12.58c0,.33-.13.46-.32.46l-.18,0h0a2.54,2.54,0,0,0,.1-.66A1,1,0,0,0,137.22,120Zm-.13,1.31-.1,0a.71.71,0,0,1-.5-.65c0-.22.11-.35.28-.35a.36.36,0,0,1,.26.11.56.56,0,0,1,.14.4A1.89,1.89,0,0,1,137.09,121.3Z"/><path d="M137.82,123.15l.48.12v-.48l-2.12-.57v.49l.79.21a1,1,0,0,1,.85,1v0l.51.14A1,1,0,0,0,137.82,123.15Z"/><polygon points="136.18 125.85 138.29 126.41 138.29 125.93 136.18 125.36 136.18 125.85"/><polygon points="139.08 126.12 138.62 126 138.62 126.52 139.08 126.65 139.08 126.12"/><path d="M138.3,127l-.42-.11v.27l-1.07-.29a1.07,1.07,0,0,0-.25,0c-.24,0-.41.19-.41.53a1,1,0,0,0,.07.39l.42.11a.84.84,0,0,1-.06-.3c0-.14,0-.22.16-.22l.12,0,1,.27v.57l.42.11v-.57l.57.16v-.48l-.57-.16Z"/><polygon points="138.62 130.9 139.08 131.02 139.08 130.5 138.62 130.38 138.62 130.9"/><polygon points="138.29 130.31 136.18 129.74 136.18 130.22 138.29 130.79 138.29 130.31"/><path d="M138,132l.27.08v-.49l-2.12-.56v.49l1.19.31a.65.65,0,0,1,.53.58c0,.23-.12.37-.33.37a.89.89,0,0,1-.22,0l-1.17-.31v.48l1.16.3a1.21,1.21,0,0,0,.37.07.6.6,0,0,0,.63-.64A1,1,0,0,0,138,132Z"/><path d="M138.34,136.51a.91.91,0,0,0-.31-.62l.27.08v-.49l-2.12-.56v.49l1.19.31a.64.64,0,0,1,.53.57.3.3,0,0,1-.33.34.89.89,0,0,1-.22,0l-1.17-.31v.48l1.19.32a.62.62,0,0,1,.53.56.3.3,0,0,1-.33.34l-.22,0-1.17-.32v.48l1.16.31a1.61,1.61,0,0,0,.37.07.59.59,0,0,0,.63-.63,1,1,0,0,0-.42-.79A.57.57,0,0,0,138.34,136.51Z"/><path d="M135.68,138.49a.73.73,0,0,0-.15.48c0,.34.16.58.59.87l2.18,1.36v-.53l-1.57-.93,1.57-.18v-.49l-2.12.31c-.19-.14-.24-.24-.24-.36a.51.51,0,0,1,.09-.27Z"/><path d="M138.3,145.15v-.49l-.38-.1a.71.71,0,0,0,.42-.69,1.13,1.13,0,0,0-.35-.8,1.22,1.22,0,0,0-.87-.37.77.77,0,0,0-.77.81,1,1,0,0,0,.32.73l-.13,0a.93.93,0,0,1-.42-.22.7.7,0,0,1-.19-.52,1.29,1.29,0,0,1,.27-.78l-.34-.27a1.87,1.87,0,0,0-.32,1.08,1.1,1.1,0,0,0,.29.83,1.34,1.34,0,0,0,.72.36Zm-1.1-2a.77.77,0,0,1,.52.22.73.73,0,0,1,.21.5.47.47,0,0,1-.47.51.66.66,0,0,1-.49-.22.71.71,0,0,1-.22-.52A.44.44,0,0,1,137.2,143.2Z"/><path d="M136.18,145.81l1.19.31a.65.65,0,0,1,.53.58c0,.24-.12.37-.33.37a.89.89,0,0,1-.22,0l-1.17-.31v.48l1.16.31a1.59,1.59,0,0,0,.37.06.6.6,0,0,0,.63-.64.91.91,0,0,0-.31-.64l1.07.28v-.48l-2.92-.78Z"/><path d="M138.34,149.31a1.26,1.26,0,0,0-1.24-1.23.93.93,0,0,0-1,1,1.25,1.25,0,0,0,1.23,1.23A.93.93,0,0,0,138.34,149.31Zm-1.58.26a.67.67,0,0,1-.2-.47.51.51,0,0,1,.56-.54.88.88,0,0,1,.6.26.67.67,0,0,1,.2.47.51.51,0,0,1-.56.54A.91.91,0,0,1,136.76,149.57Z"/><path d="M136.85,152.33c.31,0,.46-.26.59-.58s.17-.34.28-.34.24.12.24.33a1,1,0,0,1-.23.58l.31.26a1.3,1.3,0,0,0,.3-.81.74.74,0,0,0-.7-.83c-.33,0-.46.26-.61.61s-.16.31-.26.31-.25-.15-.25-.34a1,1,0,0,1,.29-.68l-.29-.29a1.31,1.31,0,0,0-.38.93A.75.75,0,0,0,136.85,152.33Z"/><path d="M138.3,153.12l-.42-.11v.27l-1.07-.28a.73.73,0,0,0-.25,0c-.24,0-.41.19-.41.53a1,1,0,0,0,.07.39l.42.11a.84.84,0,0,1-.06-.3c0-.14,0-.22.16-.22l.12,0,1,.27v.57l.42.11v-.57l.57.16v-.48l-.57-.16Z"/><polygon points="136.18 155.04 136.74 155.19 136.74 154.66 136.18 154.51 136.18 155.04"/><path d="M149.55,146.55h0c1.71,0,2.36-1.23,2.8-3.08s.8-2.22,1.44-2.22h0c.64,0,1.07.6,1.07,1.49a4.11,4.11,0,0,1-.83,2.37l1.17,1.17,0,0a5.4,5.4,0,0,0,1.19-3.48c0-1.93-1.14-3.29-2.78-3.29h0c-1.76,0-2.36,1.13-2.86,3.2-.41,1.79-.78,2.11-1.4,2.11h0c-.68,0-1.14-.66-1.14-1.64a4.32,4.32,0,0,1,1.15-2.89l-1.16-1.17,0,0a5.9,5.9,0,0,0-1.52,4C146.69,145.2,147.81,146.55,149.55,146.55Z"/><polygon points="154.57 151.47 146.8 151.47 146.8 153.23 154.57 153.23 154.57 156.06 156.32 156.06 156.32 148.63 154.57 148.63 154.57 151.47"/><path d="M151.56,137.35a4.91,4.91,0,0,0,4.9-4.93V97.87a4.9,4.9,0,1,0-9.8,0v34.55A4.91,4.91,0,0,0,151.56,137.35Zm-3.15-39.48a3.15,3.15,0,1,1,6.3,0v34.55a3.15,3.15,0,1,1-6.3,0Z"/></g></svg>