<svg xmlns="http://www.w3.org/2000/svg" viewBox="0 0 311.75 80.06"><g id="デザイン"><polygon points="64.11 18.02 49.79 18.02 49.79 0.59 43.35 0.59 43.35 35.45 49.79 35.45 49.79 24.43 64.11 24.43 64.11 35.44 70.56 35.44 70.56 0.59 64.11 0.59 64.11 18.02"/><path d="M18,24.43h9.63A11.59,11.59,0,0,1,9.85,26.16,11.4,11.4,0,0,1,6.46,18,11.6,11.6,0,0,1,26.24,9.87L30.8,5.34A18.06,18.06,0,0,0,0,18,17.85,17.85,0,0,0,5.29,30.7,18.06,18.06,0,0,0,36.08,18H18Z"/><path d="M9.82,54a11.62,11.62,0,0,1,16.42,0l4.56-4.53a18.13,18.13,0,0,0-25.53,0,17.86,17.86,0,0,0-.08,25.25.3.3,0,0,0,.08.08,18.11,18.11,0,0,0,25.52,0l-4.57-4.52A11.55,11.55,0,0,1,9.78,54.05Z"/><path d="M95.49,66.54a7.16,7.16,0,0,1-14.32,0V44.71H74.72V66.54a13.61,13.61,0,0,0,27.21,0V44.71H95.49Z"/><path d="M134.22,60.56v0A10.13,10.13,0,0,0,135.83,55a10.36,10.36,0,0,0-10.38-10.31H112.09V79.56h16.58a10.3,10.3,0,0,0,5.55-19Zm-15.68-9.45h6.91a3.91,3.91,0,1,1,0,7.82h-6.91Zm10.53,22h-.4v0H118.54V65.34h10.13a3.91,3.91,0,0,1,.4,7.81Z"/><polygon points="50.07 44.71 43.62 44.71 43.62 79.56 66.81 79.56 66.81 73.15 50.07 73.15 50.07 44.71"/><path d="M155.36,54.24a4.17,4.17,0,0,1-1,2.13,2.08,2.08,0,0,1-1.52.63,2.15,2.15,0,0,1-2-1.29l-1.31,1a3.51,3.51,0,0,0,3.19,1.9,3.92,3.92,0,0,0,2.85-1,6,6,0,0,0,1.45-3l1.71-6.35h-1.86Z"/><path d="M161.86,58.67a3.26,3.26,0,0,0,2.33-1.15l-.26,1h1.77l2.06-7.71H166l-1.17,4.34a2.31,2.31,0,0,1-2.12,1.93,1.16,1.16,0,0,1-1.31-1,1.77,1.77,0,0,1,0-.23,4.17,4.17,0,0,1,.1-.78l1.15-4.28h-1.77L159.74,55a5.78,5.78,0,0,0-.23,1.36,2.17,2.17,0,0,0,2,2.32Z"/><path d="M172.42,52a3.47,3.47,0,0,1,2.11.85l1-1.14a4.75,4.75,0,0,0-3-1.1c-1.86,0-3,1.13-3,2.57,0,1.19.93,1.68,2.21,2.21.78.32,1.13.58,1.13,1s-.54.92-1.23.92a3.42,3.42,0,0,1-2.49-1.08l-1.07,1.08a4.81,4.81,0,0,0,3.42,1.39c1.76,0,3.08-1,3.08-2.61,0-1.13-1-1.67-2.12-2.17-.88-.36-1.23-.61-1.23-1A1.1,1.1,0,0,1,172.42,52Z"/><path d="M180.68,56.83a2.69,2.69,0,0,1-1.12.25c-.5,0-.78-.2-.78-.6a3.41,3.41,0,0,1,.06-.43l1-3.73h2l.41-1.52h-2.06l.57-2.11H179l-.57,2.11h-1L177,52.32h1l-1,3.92a3,3,0,0,0-.13.89c0,.9.69,1.52,1.93,1.52a3.37,3.37,0,0,0,1.44-.28Z"/><path d="M192,50.7a7.84,7.84,0,0,0-2.75.51l.3,1.43a5.82,5.82,0,0,1,2.1-.42c1.21,0,1.71.45,1.71,1.17a3.4,3.4,0,0,1-.09.64v.13a8.85,8.85,0,0,0-2.4-.38,3.77,3.77,0,0,0-2.64.94,2.61,2.61,0,0,0-.73,1.85,2.13,2.13,0,0,0,2.15,2.11h.17a3.31,3.31,0,0,0,2.54-1.18l-.26,1h1.71l1.15-4.3a4.74,4.74,0,0,0,.16-1.13C195.11,51.58,194,50.7,192,50.7Zm.86,4.86a2.55,2.55,0,0,1-2.38,1.84c-.77,0-1.26-.42-1.26-1a1.37,1.37,0,0,1,.38-.94A2.18,2.18,0,0,1,191.1,55a6.52,6.52,0,0,1,1.87.29Z"/><polygon points="209.41 56.08 209.11 50.77 207.61 50.77 204.48 56.06 204.34 50.8 202.54 50.8 202.97 58.57 204.53 58.57 207.68 53.3 207.99 58.57 209.58 58.57 214.2 50.8 212.42 50.8 209.41 56.08"/><path d="M217.16,54.18a2.36,2.36,0,0,1,2.12-1.93c.85,0,1.34.44,1.34,1.21a2.88,2.88,0,0,1-.11.78l-1.14,4.27h1.76l1.11-4.2a5.18,5.18,0,0,0,.24-1.36,2.17,2.17,0,0,0-2-2.31h-.32a3.39,3.39,0,0,0-2.35,1.14l1.05-3.93h-1.77l-2.84,10.66H216Z"/><polygon points="228.54 47.94 226.63 47.94 226.17 49.62 228.07 49.62 228.54 47.94"/><polygon points="223.85 58.51 225.62 58.51 227.69 50.8 225.92 50.8 223.85 58.51"/><path d="M232.48,53.91c-.87-.36-1.22-.61-1.22-1s.42-.88,1.18-.88a3.53,3.53,0,0,1,2.12.85l1-1.14a4.75,4.75,0,0,0-3-1.1c-1.86,0-3,1.13-3,2.57,0,1.19.93,1.68,2.22,2.21.77.32,1.12.58,1.12,1s-.54.92-1.23.92a3.42,3.42,0,0,1-2.49-1.08l-1.07,1.08a4.81,4.81,0,0,0,3.42,1.39c1.76,0,3.08-1,3.08-2.61C234.6,55,233.65,54.41,232.48,53.91Z"/><path d="M242.25,50.67a3.42,3.42,0,0,0-2.5,1.16l.28-1h-1.77l-2.68,10.05h1.78l1-3.71A2.74,2.74,0,0,0,241,58.7a4.12,4.12,0,0,0,2.88-1.25,4.82,4.82,0,0,0,1.4-3.48,3,3,0,0,0-2.68-3.28Zm1.15,3.14a2,2,0,0,1,0,.25,3.25,3.25,0,0,1-.93,2.35,2.44,2.44,0,0,1-1.73.75,1.87,1.87,0,0,1-1.94-1.79v-.16a3.24,3.24,0,0,1,1-2.25,2.59,2.59,0,0,1,1.83-.8A1.75,1.75,0,0,1,243.4,53.81Z"/><path d="M250,58.71a4.35,4.35,0,0,0,.51,0,4.49,4.49,0,0,0,3-1.07l-.85-1.12a3,3,0,0,1-2,.74,1.82,1.82,0,0,1-2-1.62,2.41,2.41,0,0,1,0-.38h5.6a4.14,4.14,0,0,0,.34-1.63,2.86,2.86,0,0,0-2.73-3h-.35a4.4,4.4,0,0,0-3.1,1.39A4.83,4.83,0,0,0,247,55.32,3.22,3.22,0,0,0,250,58.71Zm-.36-5.86h0a2.5,2.5,0,0,1,1.78-.76,1.39,1.39,0,0,1,1.56,1.2,1.22,1.22,0,0,1,0,.27,1.9,1.9,0,0,1-.07.54h-4A3.27,3.27,0,0,1,249.66,52.85Z"/><path d="M261.82,52.53l.5-1.87a3.59,3.59,0,0,0-3.23,1.88l.45-1.74h-1.76l-2.06,7.71h1.78l.76-2.86c.57-2.13,1.91-3.12,3.46-3.12Z"/><polygon points="263.6 56.5 261.66 56.5 261.12 58.51 263.06 58.51 263.6 56.5"/><polygon points="150.41 74.29 152.22 74.29 154.97 64.07 153.15 64.07 150.41 74.29"/><path d="M166.32,66.42c-.1,0-.2,0-.31,0a3.39,3.39,0,0,0-2.35,1.14l1.05-3.93h-1.77l-2.83,10.66h1.78L163,70a2.33,2.33,0,0,1,2.15-2,1.17,1.17,0,0,1,1.33,1,.91.91,0,0,1,0,.23,2.48,2.48,0,0,1-.12.77l-1.14,4.28H167l1.11-4.21a5.1,5.1,0,0,0,.24-1.35A2.17,2.17,0,0,0,166.32,66.42Z"/><path d="M175,66.42h-.3a4.39,4.39,0,0,0-3.13,1.31,4.83,4.83,0,0,0-1.41,3.36,3.2,3.2,0,0,0,3,3.38,2.68,2.68,0,0,0,.49,0,4.45,4.45,0,0,0,3-1.06l-.85-1.13a3,3,0,0,1-2,.75,1.82,1.82,0,0,1-2-1.62,2.41,2.41,0,0,1,0-.38h5.6a4.19,4.19,0,0,0,.34-1.64A2.86,2.86,0,0,0,175,66.42Zm1,3.46h-4a3.21,3.21,0,0,1,.76-1.26,2.54,2.54,0,0,1,1.78-.76,1.39,1.39,0,0,1,1.53,1.24,1,1,0,0,1,0,.24A1.9,1.9,0,0,1,176.07,69.88Z"/><path d="M183.53,66.48a7.62,7.62,0,0,0-2.75.51l.3,1.43a5.82,5.82,0,0,1,2.1-.42c1.21,0,1.71.45,1.71,1.16a3.51,3.51,0,0,1-.09.65v.13a8.48,8.48,0,0,0-2.4-.38,3.76,3.76,0,0,0-2.64.93,2.63,2.63,0,0,0-.73,1.86,2.13,2.13,0,0,0,2.15,2.11h.17a3.31,3.31,0,0,0,2.54-1.18l-.26,1h1.71L186.45,70a4.66,4.66,0,0,0,.16-1.12C186.61,67.35,185.54,66.48,183.53,66.48Zm.86,4.86A2.55,2.55,0,0,1,182,73.18c-.77,0-1.25-.42-1.25-1a1.32,1.32,0,0,1,.38-.93,2.11,2.11,0,0,1,1.48-.51,6.19,6.19,0,0,1,1.87.29Z"/><path d="M191.27,68.32l.45-1.74H190l-2,7.71h1.78l.76-2.86c.57-2.14,1.91-3.13,3.46-3.13h.1l.5-1.87A3.61,3.61,0,0,0,191.27,68.32Z"/><polygon points="199.39 74.29 201.16 74.29 203.23 66.58 201.46 66.58 199.39 74.29"/><polygon points="201.71 65.4 203.61 65.4 204.08 63.72 202.16 63.72 201.71 65.4"/><path d="M208.74,64.46H207l-.57,2.12h-1L205,68.1h1L205,72a3.83,3.83,0,0,0-.13.89c0,.91.69,1.52,1.93,1.52a3.44,3.44,0,0,0,1.45-.28l.4-1.53a2.86,2.86,0,0,1-1.12.25c-.5,0-.77-.21-.77-.6,0-.14,0-.29,0-.44l1-3.72h2.06l.41-1.52h-2.06Z"/><polygon points="215.41 74.29 217.18 74.29 219.25 66.58 217.48 66.58 215.41 74.29"/><polygon points="218.18 63.72 217.73 65.4 219.63 65.4 220.1 63.72 218.18 63.72"/><path d="M226.22,66.42a1.82,1.82,0,0,0-.33,0,3.39,3.39,0,0,0-2.35,1.14l.27-1H222l-2,7.73h1.78L222.91,70a2.34,2.34,0,0,1,2.1-2c.85,0,1.35.44,1.35,1.22a3.34,3.34,0,0,1-.12.77l-1.14,4.28h1.77L228,70.08a6.15,6.15,0,0,0,.23-1.35A2.17,2.17,0,0,0,226.22,66.42Z"/><path d="M245.46,66.42h-.27a3.56,3.56,0,0,0-2.9,1.55,2.08,2.08,0,0,0-2.1-1.55,3.12,3.12,0,0,0-2.26,1.14l.26-1h-1.77l-2.06,7.71h1.79L237.3,70a2.3,2.3,0,0,1,2.06-2,1.13,1.13,0,0,1,1.25,1,1,1,0,0,1,0,.24,3.32,3.32,0,0,1-.1.77l-1.15,4.28h1.77L242.29,70a2.29,2.29,0,0,1,2.05-2,1.13,1.13,0,0,1,1.25,1,1,1,0,0,1,0,.24,3.32,3.32,0,0,1-.1.77l-1.15,4.28h1.77l1.12-4.21a5.55,5.55,0,0,0,.25-1.35A2.16,2.16,0,0,0,245.46,66.42Z"/><path d="M252,72.29l-.65-5.71h-1.81l1.13,7.74c-.5.67-.85.86-1.32.86a1.82,1.82,0,0,1-1-.34l-.93,1.3a2.77,2.77,0,0,0,1.75.53c1.24,0,2.13-.59,3.17-2.16l5-7.93h-1.94Z"/><path d="M269.65,68a2.65,2.65,0,0,0-2.54-1.55,4.21,4.21,0,0,0-2.92,1.25,4.53,4.53,0,0,0-1.35,3.22,2.8,2.8,0,0,0,2.8,2.8h.2a3.64,3.64,0,0,0,2.64-1.17l-.13.46a3.32,3.32,0,0,1-.8,1.57,2.49,2.49,0,0,1-1.89.68,4.79,4.79,0,0,1-2.88-1l-1,1.22a6.66,6.66,0,0,0,4,1.18,4,4,0,0,0,3-1.08A5,5,0,0,0,270.09,73l1.69-6.37H270Zm-1.29,3.43v0a2.65,2.65,0,0,1-1.9.8,1.6,1.6,0,0,1-1.77-1.43,1.55,1.55,0,0,1,0-.22,2.72,2.72,0,0,1,.81-1.9,2.61,2.61,0,0,1,1.79-.76,1.75,1.75,0,0,1,1.87,1.59v.14A2.47,2.47,0,0,1,268.36,71.43Z"/><path d="M278.65,66.42c-.1,0-.2,0-.3,0A3.37,3.37,0,0,0,276,67.56l1-3.93h-1.77L272.4,74.29h1.78L275.37,70a2.36,2.36,0,0,1,2.12-2c.85,0,1.34.44,1.34,1.22a2.87,2.87,0,0,1-.11.77l-1.14,4.28h1.76l1.11-4.21a5.1,5.1,0,0,0,.24-1.35A2.17,2.17,0,0,0,278.65,66.42Z"/><path d="M287.46,66.42a3.38,3.38,0,0,0-.45,0,4.42,4.42,0,0,0-3.14,1.34A4.54,4.54,0,0,0,282.54,71a3.41,3.41,0,0,0,3.28,3.52h.34a4.33,4.33,0,0,0,3.14-1.34A4.45,4.45,0,0,0,290.66,70,3.39,3.39,0,0,0,287.46,66.42ZM288.89,70a3.2,3.2,0,0,1-.88,2.2h-.07a2.34,2.34,0,0,1-1.7.74,1.87,1.87,0,0,1-2-1.73,1.22,1.22,0,0,1,0-.27,3.22,3.22,0,0,1,.94-2.19,2.51,2.51,0,0,1,1.71-.75,1.86,1.86,0,0,1,2,1.71A1.4,1.4,0,0,1,288.89,70Z"/><path d="M295.91,67.81a3.49,3.49,0,0,1,2.11.84l1-1.14a4.74,4.74,0,0,0-3-1.09c-1.86,0-3,1.12-3,2.57,0,1.18.94,1.68,2.22,2.2.78.32,1.13.59,1.13,1,0,.57-.54.92-1.23.92a3.44,3.44,0,0,1-2.5-1.08l-1.06,1.08A4.83,4.83,0,0,0,295,74.46c1.76,0,3.08-1,3.08-2.61,0-1.12-.95-1.66-2.12-2.16-.88-.37-1.23-.61-1.23-1S295.15,67.81,295.91,67.81Z"/><path d="M304.3,64.46h-1.77L302,66.58h-1l-.41,1.52h1l-1,3.91a3,3,0,0,0-.13.89c0,.91.68,1.52,1.93,1.52a3.37,3.37,0,0,0,1.44-.28l.41-1.53a2.86,2.86,0,0,1-1.12.25c-.5,0-.78-.21-.78-.6a3.56,3.56,0,0,1,.06-.44l1-3.72h2.06l.41-1.52h-2.06Z"/><polygon points="306.06 74.29 308 74.29 308.54 72.27 306.59 72.27 306.06 74.29"/><path d="M98.74,36H225.23a17.93,17.93,0,1,0,0-35.86H98.75a17.93,17.93,0,0,0,0,35.86ZM97.39,6.55c.46,0,.91,0,1.36,0H225.23a11.52,11.52,0,0,1,1.36,23,10.29,10.29,0,0,1-1.36,0H98.75a11.52,11.52,0,1,1-1.36-23Z"/><path d="M264.49,30.13c-3.83,0-7.11-1.3-10.58-4.22l-4.29,4.27.12.11a21.71,21.71,0,0,0,14.61,5.57c7.64,0,12.57-4.12,12.57-10.49v-.09c0-6.28-4.49-8.65-11.24-10.28-7-1.66-8.16-2.91-8.16-5.26v-.1c0-2.34,2.21-3.92,5.49-3.92a15.07,15.07,0,0,1,8.64,3l4.29-4.27-.12-.1A19.61,19.61,0,0,0,263.11,0c-7.09,0-12,4.19-12,10.18v.1c0,6.45,4.11,8.66,11.7,10.48,6.55,1.5,7.7,2.84,7.7,5.11V26C270.47,28.46,268.07,30.13,264.49,30.13Z"/><polygon points="284.54 0.59 284.54 7 294.92 7 294.92 35.45 301.37 35.45 301.37 7 311.75 7 311.75 0.59 284.54 0.59"/></g></svg>