<svg xmlns="http://www.w3.org/2000/svg" viewBox="0 0 150.8 354.61"><defs><style>.cls-1{fill:none;}</style></defs><g id="デザイン"><rect class="cls-1" width="150.8" height="354.61"/><circle cx="59.76" cy="64.82" r="5.86"/><path d="M105.72,64.82a5.86,5.86,0,1,0-5.86,5.86A5.87,5.87,0,0,0,105.72,64.82Z"/><path d="M85.67,64.82a.81.81,0,0,0-.81-.81H74.76a.81.81,0,0,0-.81.81,5.86,5.86,0,0,0,11.72,0Z"/><path d="M25.2,65.38c5.19,4,11.56,1.28,18.91-8,10.53-13.25,24-21.63,38-23.6,10-1.4,20.44,1.44,27.33,7.44A22.84,22.84,0,0,1,117.47,59c0,10.09-3.78,18.64-10.94,24.74-6.42,5.46-15.54,8.85-25.66,9.53-13.13.89-18-4.16-21.51-7.84-1.79-1.86-3.33-3.47-5.46-3.77A6.23,6.23,0,0,0,48.46,83a5.17,5.17,0,0,0-1.59,4.13C47.18,90.55,51.12,96,73.11,96c1.55,0,3.18,0,4.91-.08,15-.49,27.68-4.69,36.61-12.14a34.9,34.9,0,0,0,13-27.11c0-11.47-6.86-18.35-12.61-22.11a46.44,46.44,0,0,0-24.44-7c-17.36,0-26.67,7.36-37.05,17C42.65,54.65,34.29,59.6,31.71,57.47a2.8,2.8,0,0,1-.73-2.8c.8-4,6.29-9.48,14.08-11.84,5.39-1.63,7.28-4.19,7.92-6.06A5.3,5.3,0,0,0,52.45,32c-2-2.82-6.14-2.32-9.25-1.41-.41.12-1,.34-1.67.59-2.87,1.06-8.21,3-9.64,1.05a1.79,1.79,0,0,1-.2-1.43c.72-3.63,7.87-10.68,15.94-15.72,6.45-4,9.84-7.53,10.09-10.44a4.09,4.09,0,0,0-1.55-3.5A4.38,4.38,0,0,0,52.43.06c-2.57.39-5.51,2.86-7.66,6.44a36.65,36.65,0,0,0-2,4.06c-1.88,4.25-4.22,9.54-10.58,14.15-5.33,3.86-8.21,7.24-8.56,10a4,4,0,0,0,.93,3.18c2.1,2.53,6.08,1.88,10.64-1.73,3.61-2.86,6.29-2.94,7.58-2.74A3.81,3.81,0,0,1,45.46,35a2.51,2.51,0,0,1,.37,2.13c-.63,2.34-4.46,5.25-11.7,8.89-5,2.53-10.39,8.13-10.93,14A5.7,5.7,0,0,0,25.2,65.38Z"/><path d="M33.31,190.8a6.84,6.84,0,0,0-7.29-2,9.52,9.52,0,0,0-6.16,7.4,6,6,0,0,0,2.73,6c4.84,3.26,6.15,7.24,7.2,10.44,1.15,3.49,2.05,6.25,6.86,6.25,5.65,0,7.28-2,8.87-3.89a8.92,8.92,0,0,1,6-3.75c5.65-1.06,8.38-2.23,9.12-3.94a3.26,3.26,0,0,0-.56-3.13,3.35,3.35,0,0,0-2.46-1.76c-2.29-.21-4.87,2.49-7.15,4.88-.6.63-1.17,1.23-1.72,1.75a9.29,9.29,0,0,1-8,2,6.62,6.62,0,0,1-5-3.44c-.9-2-.47-4,0-6.1C36.47,198.42,37.25,194.84,33.31,190.8Z"/><path d="M19.68,244.08c.5,3.56,3.83,5.88,8.37,5.88h.58c6.65-.29,11.41-3.52,17.43-7.61,9.56-6.48,21.45-14.56,47.7-15.72,12.92-.56,21.34.86,25,4.24a6.28,6.28,0,0,1,2.13,4.47,4.71,4.71,0,0,1-1.35,4c-1.54,1.3-4.51,1.46-9.07.51-5-1.05-8.06-.92-9.64.41a3.9,3.9,0,0,0-1.22,3.32,3.53,3.53,0,0,0,1.56,3c2.31,1.54,7.12,1.07,13.55-1.31a38.43,38.43,0,0,1,11-1.89c6.4-.45,11.46-.8,11.12-9a13.9,13.9,0,0,0-5.24-10.44c-6.89-5.74-20.1-7.75-36.25-5.5-11.67,1.62-26.42,8-38.28,13.06-11.42,4.92-21.28,9.15-22.7,6.62a1.57,1.57,0,0,1-.05-1.45c2.13-5.36,25.61-13.87,39.15-18.06,10.56-3.27,45.8-14.56,55.48-22.41,3.12-2.53,4.66-5.77,4.13-8.66a5.22,5.22,0,0,0-3.53-4.09c-2.77-.9-6.23.34-9.49,3.43l-.72.68C106,200.17,92.22,213.22,47.55,224c-9.7,2.34-17.4,5.7-22.28,9.72C21.26,237,19.22,240.81,19.68,244.08Z"/><path d="M68.17,275.32c-9.56,1.36-20.63,4.34-23,8.63a3.51,3.51,0,0,0-.15,3.27c.78,1.79,2.76,2.45,5.42,2.45,3.87,0,9.21-1.4,14.43-2.78s10.36-2.72,14-2.72c4,0,8.67,1,13.22,1.95,6.55,1.37,12.2,2.56,14.68.73a3.13,3.13,0,0,0,1.24-2.33,3.08,3.08,0,0,0-1.06-2.65c-5.85-5.3-33.07-.21-33.34-.15l-2.4.47c-4.84,1-9,1.8-10.29.82a1,1,0,0,1-.38-.76c-.16-3.14,10.84-6,21.8-7.5,8.77-1.18,14.15-3.12,16-5.77a3.7,3.7,0,0,0,.61-3A3.92,3.92,0,0,0,97,263.46c-4.24-2.55-14.68-1.37-23.16.93l-.06,0c-7.79,2.11-12.49,3.39-13.12,2,0,0,0,0,0-.12.88-1.69,14.79-5.6,22.37-6.92,4-.7,9.15-2.13,10.93-5a4,4,0,0,0,.42-3.43c-1.69-5.67-11.47-3.71-17.15-2-7.92,2.33-10.51,2.56-11.55,1a1.15,1.15,0,0,1-.1-1.2c.54-1.2,3-2.65,7.29-3.19,3.44-.44,5.68-1.48,6.31-2.93a2.36,2.36,0,0,0-.41-2.41,3.11,3.11,0,0,0-2.34-1.29c-2-.16-4.8,1.13-7.2,3.42-2.89,2.77-3.49,3-9.17,4.91-2,.68-3.28,1.82-3.55,3.22a3.17,3.17,0,0,0,1.2,3c1.63,1.41,5.12,2.29,10,.55,9.3-3.29,15.39-3.52,16.71-.61a1.32,1.32,0,0,1,0,1.22c-.84,1.65-4.78,3.3-11.09,4.65l-2,.41c-6.61,1.36-17.67,3.64-20.11,7.35a2.75,2.75,0,0,0-.44,2.11,2.7,2.7,0,0,0,1.49,1.9c4.25,2.26,16-1.7,19.79-3.27,5.08-2.1,12.1-2.62,15-1.11a2,2,0,0,1,1.15,1.25A1.33,1.33,0,0,1,88,269C86.16,271.67,76.43,274.15,68.17,275.32Z"/><path d="M35,319.22c2.59,0,5.84-2.45,9.27-5A49,49,0,0,1,50,310.28a40.7,40.7,0,0,1,6.86-2.53c5.65-1.71,11.48-3.49,10.25-8.81-.55-2.39-1.67-3.76-3.32-4.06-3.1-.57-7,2.82-8.65,5.28-.29.44-.59.93-.9,1.44-2,3.28-4.74,7.78-11.8,7-5.16-.52-5.9-4.52-6.61-8.39a16,16,0,0,0-1.52-5.11,9.05,9.05,0,0,0-5.93-4.6,8.07,8.07,0,0,0-6.55,1.8,7.54,7.54,0,0,0-3.16,6.1A7.84,7.84,0,0,0,22,304.67l.05,0c.06,0,5.82,2.38,9.23,11.41a4.31,4.31,0,0,0,2.69,3A3.38,3.38,0,0,0,35,319.22Z"/><path d="M143.32,284c-9.19-3.1-26.63,4.3-35.69,10.84-6.23,4.5-12.23,6.38-16.46,5.18a6.21,6.21,0,0,1-4.2-3.65,7.56,7.56,0,0,0-4.13-4.51,6,6,0,0,0-4.91.43c-2.58,1.31-3.85,4.68-3,8,.71,2.85,2.36,5.4,14.6,5.4,5.94,0,11.34-3.59,17.07-7.39,5.9-3.91,12-8,19.33-8.66,6.4-.61,9.25,2.06,9.77,4.76.65,3.32-2,7.65-8.24,9.52-4.75,1.42-12.68,2.63-21.86,4C94,309.72,80.94,311.72,71,314.67c-16.8,5-30.6,17.88-34.31,23-2,2.79-3.81,7.58-3,11.49a6.31,6.31,0,0,0,3.1,4.33,8.17,8.17,0,0,0,4.06,1.11,8.56,8.56,0,0,0,2.37-.35c3.89-1.14,7.75-5.08,11.14-11.41.85-1.58,1.59-3.35,2.38-5.22,4.32-10.3,9.71-23.13,39.13-25.18,28.2-2,46.75-4.76,52.12-12.54,1.88-2.72,2.19-6,.95-10.1A8.42,8.42,0,0,0,143.32,284Z"/><path d="M149.45,169.25c-1.62-2.12-5-2.58-9.67-3.24-8.24-1.14-20.69-2.87-32.47-16-4.28-4.77-6.11-8.48-5.6-11.37.62-3.48,4.45-5.52,8.89-7.87a48.31,48.31,0,0,0,7.19-4.36,16.9,16.9,0,0,0,6.29-15.86A17.11,17.11,0,0,0,114,96.87c-8.19-3.33-15.68-1.71-24.35.17l-2.84.61c-9.76,2-26.08,2.25-32.59,1-9.25-1.81-13.08-6.24-16.47-10.14-2.86-3.3-5.33-6.15-10.33-6.94a7.76,7.76,0,0,0-7.56,3.1,5.41,5.41,0,0,0-.45,5.9,8,8,0,0,0,4,3.35c4.81,2.15,13.09,3.4,20.4,4.49a95.15,95.15,0,0,1,12.2,2.29c1.85.61,2.89,1.59,2.92,2.76s-1.08,2.53-2.78,3.19c-11.43,4.47-38,15.76-37.65,24.12.12,3,2.76,3.78,6.11,4.69,4,1.1,9,2.47,12.52,8.25.89,1.47,1.69,2.82,2.42,4,4.48,7.53,6.14,10.36,10.29,9.66,4.52-.75,7-5.07,7.68-13.6.78-9.37,13.8-41.63,36.82-44.7,6.09-.81,16.73-.58,19.71,10.07a1.84,1.84,0,0,1-.54,1.88,1.82,1.82,0,0,1-1.94.35c-4.73-1.85-13.68-4.66-20.53-2.57-4.38,1.34-5.33,3.91-4.82,5.71.56,2,3,3.53,6.38,2.63a19.74,19.74,0,0,0,4.83-2.24c2.21-1.28,4.31-2.5,7.13-2.5s6.3.72,7.88,2.73A4.31,4.31,0,0,1,113,119c-.44,1.85-2.08,3.53-4.61,4.75-4.15,2-9.78,2.33-13.08.79-3.78-1.75-8.87-3.58-11.69-2.31a3.29,3.29,0,0,0-1.84,2.17,4.09,4.09,0,0,0,.56,3.78c1.42,1.82,4.73,2.69,9.54,2.52,3.78-.14,7.14-.39,10-.77a1.07,1.07,0,0,1,.85,1.86c-3.66,3.28-11,8.13-25.24,12.65-15.15,4.81-16.14,6.94-17.77,10.46a18.78,18.78,0,0,1-3.77,5.67c-4.31,4.58-10.31,4.83-16.66,5.09-2.22.09-4.5.18-6.76.46-4.56.57-8.11,2.74-9,5.51a3.78,3.78,0,0,0,1,4c2.66,2.56,6.35,1.44,12.73-3.86,5.71-4.74,24.67-10.6,32-7.92,2.17.8,3.36,2,3.43,3.57.1,1.86-1.55,4-3.92,5.18-.43.21-.87.4-1.3.59-2.42,1.06-4.93,2.16-4.93,5.62,0,2,1.91,3,3.93,4,2.47,1.26,5.28,2.69,5.28,6.35,0,2.19-1.11,3.73-3,4.11a5.5,5.5,0,0,1-5.92-3.4c-1.11-2.56-3.88-5.71-7.32-6.56a6.54,6.54,0,0,0-5.83,1.33c-2.12,1.71-2.2,3.46-1.9,4.62.67,2.58,4,5,7.65,5.64a17.46,17.46,0,0,1,7.05,3c2,1.26,3.81,2.45,6.9,2.45l.77,0c3.39-.21,5-2.6,6.63-4.91,1.31-1.89,2.66-3.85,5-4.6,4-1.28,7.35.34,10.55,1.92,1.07.52,2.17,1.06,3.28,1.49,3,1.14,5.33-.25,6.12-2.21a2.81,2.81,0,0,0-1.4-3.86c-3.47-1.47-4.68-1.73-8.61-.92-.71.14-1.6.22-1.89-.25-.39-.63.3-2.25,1.77-4.12a9.59,9.59,0,0,0,1.82-7.28,7.66,7.66,0,0,0-3.79-5.25c-.89-.54-1.37-1.1-1.45-1.7-.15-1.09,1-2.32,2.24-3.62,1.68-1.79,3.59-3.81,3-6.23A3.14,3.14,0,0,0,92,156.8c-1.31-.74-3.18-.2-5.34.43a16.09,16.09,0,0,1-6.31.93c-2.64-.35-4.54-1.37-5.51-3a5.69,5.69,0,0,1-.23-5c2.4-6.66,13.46-5,18.1-4,8.74,1.92,14.68,8.65,19.56,14.8l.14.17c5.1,6.43,12.82,16.15,24.29,18.38,4.77.93,10.75.5,13.23-3.49A5.84,5.84,0,0,0,149.45,169.25Zm-91-51.58c-.36.52-.75,1-1.15,1.62-2,2.75-4.49,6.18-5.58,10.65a43.63,43.63,0,0,0-.76,5.68c-.43,4.53-.92,9.66-3.55,10.59-3.29,1.18-6.29-1.82-9.76-5.3-.59-.59-1.19-1.2-1.82-1.8-.86-.84-1.64-1.52-2.33-2.13-2.51-2.21-3.77-3.32-3.77-7,0-5.92,17.36-17.48,23-19.67a7.28,7.28,0,0,1,2.63-.52,4.51,4.51,0,0,1,3.64,1.6C60.24,113,60,115.33,58.42,117.67Z"/></g></svg>