<svg xmlns="http://www.w3.org/2000/svg" viewBox="0 0 156.46 354.16"><defs><style>.cls-1{fill:none;}.cls-2{fill:#fff;}</style></defs><g id="デザイン"><rect class="cls-1" width="156.46" height="354.16"/><circle class="cls-2" cx="62.58" cy="64.6" r="5.63"/><circle class="cls-2" cx="102.67" cy="64.6" r="5.63"/><path class="cls-2" d="M87.67,64H77.58a.58.58,0,0,0-.59.59,5.64,5.64,0,0,0,11.27,0A.58.58,0,0,0,87.67,64Z"/><path class="cls-2" d="M27.57,37.55c1.86,2.25,5.52,2,10.32-1.76,5-4,9.15-3.27,10.57-1.1C50.38,37.59,46.79,41.13,37,46c-9.25,4.65-13.67,15.31-8.89,19,3.84,2.92,9.76,3.18,18.6-7.93,9.72-12.23,22.83-21.53,38.1-23.68C100.9,31.1,120.51,40,120.51,58.74c0,21.77-17.13,33.17-36.81,34.5-19.86,1.34-20.87-10.74-27-11.61-5.21-.75-7,3-6.78,5.27.24,2.63,2.91,9.49,30.92,8.58,31.39-1,49.4-18.18,49.4-39,0-19.94-21.08-28.88-36.82-28.88-16.82,0-26.17,7-36.9,16.92S37.15,59.71,34.39,57.41c-3.31-2.73,2.71-11.78,13.42-15,9-2.71,8.81-8.28,7.27-10.45-2-2.78-6.13-2.17-9-1.32-2.17.64-9.68,4.14-11.55,1.56-2-2.79,6.37-11.59,15.81-17.47,9.84-6.14,11.83-10.63,8.5-13.59s-8.11.37-11,5.27c-2.72,4.52-4,12-12.62,18.27C27.43,30.26,25.17,34.66,27.57,37.55Z"/><path class="cls-2" d="M25.53,201.82c10.14,6.81,4.94,16.65,13.93,16.65,10.06,0,7-6.17,14.84-7.64,7.31-1.36,10.74-3.08,8.42-6.72-3-4.69-7.6,1.64-11,4.91-3.69,3.55-11.37,2.86-13.35-1.48-2.35-5.14,4-10.22-2.43-16.81C28.5,183.08,17.77,196.61,25.53,201.82Z"/><path class="cls-2" d="M123,186.79C109.73,199.37,96,213,50.41,224c-34.31,8.28-31.89,26-19,25.5,17-.73,22.22-21.43,65.14-23.33,20.66-.91,27.15,3.39,27.38,8.92.22,5.2-3.62,6.23-10.68,4.74-6.17-1.3-10.79-1.13-10.59,3.5s6.82,4.41,14.81,1.45c11-4.1,22.43,1.47,21.92-10.64-.58-13.77-18.72-18.86-41.23-15.72C74.93,221.65,40,243.41,37,238c-3.17-5.64,27.72-16.28,39.22-19.84,7.86-2.43,45.47-14.31,55.41-22.37C141,188.18,132.91,177.42,123,186.79Z"/><path class="cls-2" d="M72.21,242.28c-2.91,2.79-3.56,3-9.26,4.95-7.05,2.4-2.66,10,7.55,6.36,9.42-3.33,15.6-3.54,17-.49,1.17,2.58-4.51,4.74-11.28,6.18-7,1.5-23.47,4.37-22.38,9.61s15.29.82,21-1.53c6.53-2.7,15.79-2.69,16.48.29.78,3.42-11.81,6.47-20.28,7.67-10.54,1.49-25.67,5.47-23,11.59,2.93,6.69,23.75-3.19,33.65-3.19,11,0,28.24,7.74,28.91.55.72-7.83-26.39-4.06-34.13-2.56-7.13,1.38-13.2,2.93-13.34.33-.18-3.7,13.1-6.55,22-7.74s17.5-3.66,16.4-8.52c-1.25-5.53-15.09-4-24.8-1.4-8.37,2.27-12.74,3.47-13.45,1.92-.79-1.71,15.21-6.08,22.55-7.35s12.44-4,11.18-8.16c-1.59-5.34-10.71-3.7-16.87-1.89-7.66,2.26-10.63,2.68-11.8.94s2-4.06,7.35-4.74c5.14-.65,7.41-2.68,5.75-5S75.49,239.13,72.21,242.28Z"/><path class="cls-2" d="M24.92,304.27s5.86,2.29,9.35,11.53c3,8,11.73-2.39,18.41-5.94,6.46-3.44,18.7-3.76,17-11.09-1.76-7.63-9-2.54-11.57,1.29-2.22,3.31-4.64,9.43-12.9,8.59-7.85-.8-5.79-9.33-8.31-13.62-2.61-4.45-7.47-6.31-12.15-2.73C20.35,295.67,20.92,301.32,24.92,304.27Z"/><path class="cls-2" d="M80.84,292.28c-2.63,1.34-3.66,4.72-2.9,7.75.68,2.73,2.16,5.24,14.39,5.24,11.88,0,21.77-14.67,36.37-16,13-1.24,13.39,11.2,1.62,14.71-10.82,3.23-38.72,5.47-56.44,10.73-16.74,5-30.59,17.95-34.19,22.92-3.18,4.39-5.1,12.61.07,15.5,5,2.82,11.4.37,17.26-10.56,5.38-10,6.67-28.07,41.69-30.52,41-2.86,57.39-7.41,52.87-22.36-4-13.24-29.74-2.95-41,5.18-10.23,7.38-18.72,6.95-21,1.43C87.68,291.63,84.09,290.63,80.84,292.28Z"/><path class="cls-2" d="M152.08,169.17c-4.43-5.83-23.87,1.1-42.13-19.25-14.21-15.83,1.35-16.77,10.51-23.92,10.58-8.24,7.12-24.71-3.78-29.14-9-3.66-17.15-1.3-27.06.78s-26.24,2.24-32.68,1C40,95.3,41.08,83.25,30.15,81.54c-5.5-.86-10.16,4.3-7.78,8.67a7.78,7.78,0,0,0,3.86,3.25c8.07,3.62,26.1,4.66,32.57,6.78,4.67,1.52,3.45,5.08.16,6.37-10.48,4.09-37.84,15.56-37.51,23.9.24,6.34,12.06,2.07,18.59,12.83,6.38,10.48,7.85,14.37,12.49,13.6,4.16-.7,6.74-4.45,7.49-13.4s13.46-41.76,37-44.9c14.21-1.9,18.6,5.39,19.95,10.22a2.09,2.09,0,0,1-2.77,2.51c-4.76-1.87-13.62-4.64-20.39-2.57-8,2.46-4.83,9.57,1.43,7.91,4.3-1.14,7.15-4.75,12-4.75,4.33,0,10,1.65,8.78,6.89-1.37,5.61-12.5,8.26-18,5.69s-12-4.39-13.22-.29c-1,3.54,1.59,6.32,9.88,6,4.49-.16,7.74-.47,9.94-.76a1.29,1.29,0,0,1,1,2.24c-3.4,3.05-10.72,8.06-25.32,12.7-21.79,6.92-14.12,8.29-21.44,16.07C53,166.79,44,165.05,35.36,166.14c-7.86,1-10.93,6.25-7.89,9.16,2.47,2.37,5.88,1.58,12.43-3.87,5.73-4.75,24.71-10.71,32.22-8,6,2.2,3.49,7.25-.47,9.16-2.85,1.37-6.1,2.1-6.1,6,0,4.27,9.2,3.56,9.2,10.38,0,5.79-7.17,5.72-9.3.79-1.92-4.42-7.93-9.08-12.81-5.14s.33,8.94,5.65,9.87c7.17,1.24,8.18,5.8,14.67,5.42,6.05-.36,6.31-7.82,11.56-9.5,5.47-1.74,9.51,1.7,14,3.42,5.27,2,8-4.19,4.56-5.66s-4.62-1.7-8.49-.91c-3.66.76-2.19-2.36-.33-4.72,2.19-2.81,3.5-8.94-1.91-12.21s5-6.66,3.65-11.68-7.35.17-12.86-.55c-5.14-.68-7.47-3.94-5.91-8.25,2-5.54,10.08-5.95,18.35-4.13,8.67,1.9,14.69,8.58,19.69,14.87,5.15,6.49,12.8,16.24,24.3,18.48C151.25,181.41,155.89,174.17,152.08,169.17Zm-90.66-51.6c-2.11,3.06-5.4,6.87-6.69,12.2-1.23,5.07-.47,15-4.46,16.43s-7.5-3-11.81-7.16c-4.05-3.92-6.17-4.47-6.17-9.31,0-6.09,17.62-17.74,23.14-19.88S65.18,112.12,61.42,117.57Z"/><polygon class="cls-2" points="156.29 84.26 156.29 82.5 146.77 82.5 146.77 84.26 149.78 84.26 149.78 88.18 151.53 88.18 151.53 84.26 156.29 84.26"/><rect class="cls-2" x="146.77" y="88.18" width="9.52" height="1.76"/><path class="cls-2" d="M149.78,75.59v2.63a3.18,3.18,0,0,1-.47-4.87,3.14,3.14,0,0,1,5.37,2.24,3.17,3.17,0,0,1-.92,2.24L155,79.08a5,5,0,0,0,1.43-3.49,4.91,4.91,0,0,0-4.9-4.93,4.84,4.84,0,0,0-3.46,1.45,4.93,4.93,0,0,0,3.46,8.41V75.59Z"/><path class="cls-2" d="M136.33,75.59a3.15,3.15,0,0,1,5.37-2.25,3.19,3.19,0,0,1,0,4.49l1.23,1.25a4.95,4.95,0,0,0,0-7,4.88,4.88,0,0,0-3.46-1.44A4.83,4.83,0,0,0,136,72.11a4.94,4.94,0,0,0,0,7l1.23-1.25A3.17,3.17,0,0,1,136.33,75.59Z"/><path class="cls-2" d="M138.28,96.75a2,2,0,0,1,0-3.91h6V91.08h-6a3.72,3.72,0,0,0,0,7.43h6V96.75Z"/><path class="cls-2" d="M139.92,107.33a2.75,2.75,0,0,0,1.5.44,2.83,2.83,0,0,0,2.82-2.83v-3.65h-9.52v4.53a2.83,2.83,0,0,0,2.82,2.83A2.8,2.8,0,0,0,139.92,107.33Zm2.57-4.28v1.89a1.07,1.07,0,0,1-2.14,0h0v-1.89Zm-6,2.77v-2.77h2.13v2.77h0a1.07,1.07,0,1,1-2.13,0Z"/><polygon class="cls-2" points="144.24 84.34 144.24 82.58 134.72 82.58 134.72 82.58 134.72 88.91 136.47 88.91 136.47 88.91 136.47 84.34 144.24 84.34"/><path class="cls-2" d="M141,111.54l.29.36a.59.59,0,0,0-.36.53.58.58,0,0,0,.18.42,1.11,1.11,0,0,0,.58.26l1.63.44v.5l-1.74-.46a1.61,1.61,0,0,1-.81-.4,1,1,0,0,1-.29-.78A.94.94,0,0,1,141,111.54Z"/><path class="cls-2" d="M141.06,114.24a1.33,1.33,0,0,1,.37.07l1.15.3v.49l-1.17-.32-.21,0a.32.32,0,0,0-.34.37.65.65,0,0,0,.53.58l1.19.32v.48l-2.11-.56v-.49l.27.08a.92.92,0,0,1-.32-.64A.6.6,0,0,1,141.06,114.24Z"/><path class="cls-2" d="M140.8,116.58l.3.3a.91.91,0,0,0-.3.68c0,.19.1.33.25.33s.18-.09.27-.3.28-.61.6-.61a.73.73,0,0,1,.7.83,1.24,1.24,0,0,1-.3.81l-.31-.27a.93.93,0,0,0,.23-.58c0-.21-.1-.32-.24-.32s-.17.09-.27.33-.29.58-.59.58a.75.75,0,0,1-.72-.84A1.33,1.33,0,0,1,140.8,116.58Z"/><path class="cls-2" d="M140.85,119a1,1,0,0,1,.24,0l1.07.28v-.26l.42.11v.27l.58.15v.49l-.58-.16v.56l-.42-.11v-.56l-1-.27-.12,0c-.1,0-.16.08-.16.21a.7.7,0,0,0,.07.31l-.42-.11a1,1,0,0,1-.08-.4C140.43,119.18,140.6,119,140.85,119Z"/><path class="cls-2" d="M141,121.89a.69.69,0,0,1,.51.2,1,1,0,0,1,.25.72,2.06,2.06,0,0,1-.1.65l0,0,.17,0c.2,0,.32-.13.32-.47a1.7,1.7,0,0,0-.11-.57l.39-.08a2.09,2.09,0,0,1,.14.75c0,.55-.24.84-.65.84a1.55,1.55,0,0,1-.31,0l-1.18-.32v-.46l.28.07a.92.92,0,0,1-.33-.7A.58.58,0,0,1,141,121.89Zm.28,1.48.09,0a1.52,1.52,0,0,0,.08-.51.6.6,0,0,0-.14-.41.37.37,0,0,0-.25-.1c-.17,0-.29.13-.29.34A.72.72,0,0,0,141.28,123.37Z"/><path class="cls-2" d="M142.58,126v.49l-1.44,0,1.45.86v.41l-1.45.08,1.44.82v.49l-2.13-1.26v-.44l1.45-.08-1.45-.87v-.42Z"/><path class="cls-2" d="M143.39,130v.49l-1.08-.29a.89.89,0,0,1,.31.64.59.59,0,0,1-.63.64,1.68,1.68,0,0,1-.37-.06l-1.15-.31v-.48l1.17.31a.82.82,0,0,0,.21,0,.31.31,0,0,0,.33-.36.62.62,0,0,0-.52-.58l-1.19-.32v-.49Z"/><path class="cls-2" d="M142.58,132.39v.48l-2.11-.57v-.48Zm.78.19v.52l-.46-.12v-.52Z"/><path class="cls-2" d="M140.8,133l.3.29a.94.94,0,0,0-.3.69c0,.19.1.33.25.33s.18-.09.27-.3c.14-.36.28-.61.6-.61a.73.73,0,0,1,.7.83,1.24,1.24,0,0,1-.3.81l-.31-.27a.93.93,0,0,0,.23-.58c0-.21-.1-.32-.24-.32s-.17.09-.27.33-.29.58-.59.58a.75.75,0,0,1-.72-.84A1.33,1.33,0,0,1,140.8,133Z"/><path class="cls-2" d="M140.84,135.78l-1-.27V135l2.75.73v.49l-.28-.08a.93.93,0,0,1,.32.67.82.82,0,0,1-.9.83,1.29,1.29,0,0,1-.95-.39,1.09,1.09,0,0,1-.35-.78A.78.78,0,0,1,140.84,135.78Zm.2,1.13a.91.91,0,0,0,.65.26.48.48,0,0,0,.52-.5.68.68,0,0,0-.22-.5.84.84,0,0,0-.62-.26.51.51,0,0,0-.53.53A.69.69,0,0,0,141,136.91Z"/><path class="cls-2" d="M141.36,138.61a.5.5,0,0,0-.54.55.81.81,0,0,0,.2.54l-.31.23a1.22,1.22,0,0,1-.29-.82.88.88,0,0,1,.92-1,1.33,1.33,0,0,1,.92.39,1.19,1.19,0,0,1,.36.86.78.78,0,0,1-.82.84,1.15,1.15,0,0,1-.44-.09Zm.32.06v1.09l.14,0a.39.39,0,0,0,.41-.42.69.69,0,0,0-.21-.49A.83.83,0,0,0,141.68,138.67Z"/><path class="cls-2" d="M142.58,141.09v.49l-.48-.13a1,1,0,0,1,.52.89l-.51-.14v0a1,1,0,0,0-.86-.95l-.78-.2v-.49Z"/><path class="cls-2" d="M141,142.15v.53l-.55-.14V142Z"/><path class="cls-2" d="M139,112.51V113l-2.8-.75v-.5Z"/><path class="cls-2" d="M139.08,115.18v.49l-1.08-.29a.93.93,0,0,1,.31.64.59.59,0,0,1-.63.64,1.68,1.68,0,0,1-.37-.06l-1.15-.3v-.49l1.17.31a.86.86,0,0,0,.21,0c.21,0,.33-.14.33-.37a.63.63,0,0,0-.52-.58l-1.19-.32v-.49Z"/><path class="cls-2" d="M137.05,117.62a.5.5,0,0,0-.54.55.82.82,0,0,0,.2.54l-.31.23a1.22,1.22,0,0,1-.29-.82.88.88,0,0,1,.92-1,1.33,1.33,0,0,1,.92.39,1.19,1.19,0,0,1,.36.86.78.78,0,0,1-.82.84,1.15,1.15,0,0,1-.44-.09Zm.31,0v1.1l.15,0a.39.39,0,0,0,.41-.42.69.69,0,0,0-.21-.49A.93.93,0,0,0,137.36,117.67Z"/><path class="cls-2" d="M136.69,119.56a.74.74,0,0,1,.51.2,1.06,1.06,0,0,1,.25.73,2.06,2.06,0,0,1-.1.65h0a.47.47,0,0,0,.17,0c.2,0,.32-.14.32-.47a1.65,1.65,0,0,0-.11-.57l.39-.08a2.09,2.09,0,0,1,.14.75c0,.55-.24.84-.65.84a1.55,1.55,0,0,1-.31,0l-1.18-.32v-.47l.28.07a.91.91,0,0,1-.33-.69A.59.59,0,0,1,136.69,119.56ZM137,121l.09,0a1.56,1.56,0,0,0,.08-.51.56.56,0,0,0-.14-.41.33.33,0,0,0-.25-.1c-.17,0-.29.13-.29.34A.7.7,0,0,0,137,121Z"/><path class="cls-2" d="M138.27,122.56V123l-.48-.12a1,1,0,0,1,.52.88l-.51-.13v0a1,1,0,0,0-.86-1l-.78-.2V122Z"/><path class="cls-2" d="M138.27,125.71v.48l-2.11-.57v-.48Zm.78.19v.52l-.46-.13v-.52Z"/><path class="cls-2" d="M136.54,126.62a.67.67,0,0,1,.24,0l1.07.28v-.27l.42.12v.26l.58.16v.48l-.58-.15v.56l-.42-.11v-.56l-1-.28h-.12c-.1,0-.16.07-.16.21a.73.73,0,0,0,.07.31l-.42-.11a1,1,0,0,1-.08-.4C136.12,126.81,136.29,126.62,136.54,126.62Z"/><path class="cls-2" d="M138.27,130.08v.49l-2.11-.57v-.49Zm.78.19v.53l-.46-.13v-.52Z"/><path class="cls-2" d="M138.27,131.33v.48l-.27-.07a.93.93,0,0,1,.31.64.59.59,0,0,1-.63.64,1.68,1.68,0,0,1-.37-.06l-1.15-.3v-.49l1.17.31a.86.86,0,0,0,.21,0c.21,0,.33-.14.33-.37a.63.63,0,0,0-.52-.58l-1.19-.32v-.49Z"/><path class="cls-2" d="M138.27,135.26v.48l-.27-.07a.85.85,0,0,1,.31.62.56.56,0,0,1-.42.57,1,1,0,0,1,.42.8.58.58,0,0,1-.63.62,1.68,1.68,0,0,1-.37-.06l-1.15-.31v-.49l1.17.32.21,0a.31.31,0,0,0,.33-.35.62.62,0,0,0-.52-.56l-1.19-.32v-.48l1.17.32.21,0a.31.31,0,0,0,.33-.35.61.61,0,0,0-.52-.56l-1.19-.32v-.49Z"/><path class="cls-2" d="M138.27,138.84v.5l-1.56.18,1.56.93V141l-2.17-1.37c-.43-.28-.59-.53-.59-.87a.83.83,0,0,1,.14-.48l.36.26a.45.45,0,0,0-.1.27c0,.13.06.23.24.36Z"/><path class="cls-2" d="M135.83,142.18l.34.27a1.32,1.32,0,0,0-.27.79.68.68,0,0,0,.19.51.84.84,0,0,0,.43.22l.13,0a1,1,0,0,1-.32-.72.76.76,0,0,1,.76-.81,1.24,1.24,0,0,1,.88.36,1.14,1.14,0,0,1,.34.8.72.72,0,0,1-.42.7l.38.1v.48l-1.74-.46a1.45,1.45,0,0,1-.72-.36,1.1,1.1,0,0,1-.3-.83A1.9,1.9,0,0,1,135.83,142.18Zm1.11,1.81a.73.73,0,0,0,.49.21.47.47,0,0,0,.47-.51.69.69,0,0,0-.21-.49.71.71,0,0,0-.52-.22.44.44,0,0,0-.45.49A.79.79,0,0,0,136.94,144Z"/><path class="cls-2" d="M139.08,145.88v.48l-1.08-.29a.93.93,0,0,1,.31.64.59.59,0,0,1-.63.64,1.68,1.68,0,0,1-.37-.06l-1.15-.3v-.49l1.17.32a.82.82,0,0,0,.21,0c.21,0,.33-.14.33-.37a.63.63,0,0,0-.52-.58l-1.19-.32v-.48Z"/><path class="cls-2" d="M137.35,150.08a1.23,1.23,0,0,1-.87-.37,1.19,1.19,0,0,1-.37-.86.93.93,0,0,1,1-1,1.28,1.28,0,0,1,.88.37,1.21,1.21,0,0,1,.36.86A.93.93,0,0,1,137.35,150.08Zm-.62-.74a.86.86,0,0,0,.6.26.51.51,0,0,0,.56-.54.69.69,0,0,0-.2-.47.89.89,0,0,0-.6-.25.51.51,0,0,0-.56.54A.65.65,0,0,0,136.73,149.34Z"/><path class="cls-2" d="M136.49,150.32l.3.3a.91.91,0,0,0-.3.68c0,.19.1.33.25.33s.18-.09.27-.3.27-.61.6-.61a.74.74,0,0,1,.7.83,1.3,1.3,0,0,1-.3.81l-.31-.27a.93.93,0,0,0,.23-.58c0-.21-.1-.32-.24-.32s-.17.09-.27.33-.29.58-.59.58a.75.75,0,0,1-.72-.84A1.33,1.33,0,0,1,136.49,150.32Z"/><path class="cls-2" d="M136.54,152.73a1,1,0,0,1,.24,0l1.07.28v-.26l.42.11v.27l.58.15v.49l-.58-.16v.56l-.42-.11v-.56l-1-.27-.12,0c-.1,0-.16.08-.16.21a.7.7,0,0,0,.07.31l-.42-.11a1,1,0,0,1-.08-.4C136.12,152.92,136.29,152.73,136.54,152.73Z"/><path class="cls-2" d="M136.71,154.43V155l-.55-.15v-.53Z"/><path class="cls-2" d="M151.53,94.47a3.16,3.16,0,0,1,3.15,3.17h1.75a4.9,4.9,0,1,0-9.8,0h1.76A3.15,3.15,0,0,1,151.53,94.47Z"/><path class="cls-2" d="M152.36,143.25c.45-1.92.79-2.23,1.43-2.23h0c.64,0,1.07.6,1.07,1.5a4.14,4.14,0,0,1-.82,2.36l1.16,1.18,0,0a5.38,5.38,0,0,0,1.2-3.47c0-1.94-1.15-3.29-2.79-3.29h0c-1.76,0-2.37,1.12-2.87,3.2-.41,1.79-.77,2.1-1.39,2.1h0c-.68,0-1.14-.66-1.14-1.63a4.31,4.31,0,0,1,1.16-2.9l-1.17-1.17,0,0a6,6,0,0,0-1.52,4c0,2.08,1.12,3.43,2.86,3.43h0C151.26,146.32,151.91,145.09,152.36,143.25Z"/><polygon class="cls-2" points="156.29 148.4 154.54 148.4 154.54 151.24 146.77 151.24 146.77 153 154.54 153 154.54 155.84 156.29 155.84 156.29 148.4"/><path class="cls-2" d="M156.43,132.2h-1.75a3.15,3.15,0,1,1-6.29,0h-1.76a4.9,4.9,0,1,0,9.8,0Z"/><rect class="cls-2" x="138.28" y="114.04" width="34.56" height="1.75" transform="translate(270.48 -40.64) rotate(90)"/><rect class="cls-2" x="130.23" y="114.04" width="34.56" height="1.75" transform="translate(262.43 -32.59) rotate(90)"/></g></svg>