<svg xmlns="http://www.w3.org/2000/svg" viewBox="0 0 150.34 354.16"><defs><style>.cls-1{fill:none;}.cls-2{fill:#fff;}</style></defs><g id="デザイン"><rect class="cls-1" width="150.34" height="354.16"/><circle class="cls-2" cx="59.53" cy="64.6" r="5.63"/><circle class="cls-2" cx="99.63" cy="64.6" r="5.63"/><path class="cls-2" d="M84.63,64H74.53a.59.59,0,0,0-.59.59,5.64,5.64,0,0,0,11.27,0A.58.58,0,0,0,84.63,64Z"/><path class="cls-2" d="M24.52,37.55c1.87,2.25,5.53,2,10.33-1.76,5-4,9.15-3.27,10.57-1.1C47.33,37.59,43.75,41.13,34,46c-9.25,4.65-13.68,15.31-8.9,19,3.84,2.92,9.77,3.18,18.6-7.93,9.72-12.23,22.83-21.53,38.1-23.68C97.86,31.1,117.46,40,117.46,58.74c0,21.77-17.13,33.17-36.81,34.5-19.85,1.34-20.86-10.74-27-11.61-5.21-.75-7,3-6.78,5.27.24,2.63,2.92,9.49,30.92,8.58,31.4-1,49.4-18.18,49.4-39,0-19.94-21.08-28.88-36.82-28.88-16.81,0-26.17,7-36.89,16.92S34.11,59.71,31.34,57.41c-3.3-2.73,2.72-11.78,13.42-15,9-2.71,8.82-8.28,7.27-10.45-2-2.78-6.12-2.17-9-1.32-2.18.64-9.69,4.14-11.55,1.56-2-2.79,6.36-11.59,15.8-17.47C57.12,8.57,59.11,4.08,55.79,1.12s-8.12.37-11.06,5.27c-2.72,4.52-4,12-12.62,18.27C24.39,30.26,22.12,34.66,24.52,37.55Z"/><path class="cls-2" d="M22.48,201.82c10.14,6.81,4.94,16.65,13.94,16.65,10,0,7-6.17,14.83-7.64,7.31-1.36,10.74-3.08,8.42-6.72-3-4.69-7.59,1.64-11,4.91-3.68,3.55-11.37,2.86-13.34-1.48-2.35-5.14,4-10.22-2.43-16.81C25.46,183.08,14.72,196.61,22.48,201.82Z"/><path class="cls-2" d="M120,186.79C106.69,199.37,92.93,213,47.37,224c-34.32,8.28-31.9,26-19,25.5,17-.73,22.22-21.43,65.13-23.33,20.67-.91,27.15,3.39,27.39,8.92.22,5.2-3.62,6.23-10.68,4.74-6.18-1.3-10.79-1.13-10.6,3.5s6.82,4.41,14.81,1.45c11-4.1,22.44,1.47,21.92-10.64-.58-13.77-18.71-18.86-41.23-15.72C71.88,221.65,37,243.41,33.92,238c-3.17-5.64,27.73-16.28,39.23-19.84,7.85-2.43,45.47-14.31,55.41-22.37C137.92,188.18,129.87,177.42,120,186.79Z"/><path class="cls-2" d="M69.17,242.28c-2.92,2.79-3.57,3-9.26,4.95-7.06,2.4-2.66,10,7.54,6.36,9.43-3.33,15.61-3.54,17-.49,1.17,2.58-4.51,4.74-11.28,6.18-7,1.5-23.47,4.37-22.38,9.61s15.3.82,21-1.53c6.53-2.7,15.79-2.69,16.47.29.79,3.42-11.81,6.47-20.27,7.67-10.55,1.49-25.67,5.47-23,11.59,2.94,6.69,23.76-3.19,33.65-3.19,11,0,28.25,7.74,28.91.55.73-7.83-26.38-4.06-34.13-2.56-7.12,1.38-13.2,2.93-13.33.33-.19-3.7,13.09-6.55,22-7.74s17.5-3.66,16.41-8.52c-1.25-5.53-15.09-4-24.81-1.4-8.36,2.27-12.73,3.47-13.45,1.92-.78-1.71,15.21-6.08,22.56-7.35S95.2,255,94,250.79c-1.6-5.34-10.72-3.7-16.87-1.89-7.66,2.26-10.63,2.68-11.81.94s2-4.06,7.36-4.74c5.13-.65,7.41-2.68,5.74-5S72.45,239.13,69.17,242.28Z"/><path class="cls-2" d="M21.87,304.27s5.87,2.29,9.35,11.53c3,8,11.73-2.39,18.42-5.94,6.46-3.44,18.69-3.76,17-11.09-1.77-7.63-9-2.54-11.58,1.29-2.22,3.31-4.64,9.43-12.9,8.59-7.84-.8-5.79-9.33-8.3-13.62-2.62-4.45-7.48-6.31-12.16-2.73C17.31,295.67,17.87,301.32,21.87,304.27Z"/><path class="cls-2" d="M77.8,292.28c-2.63,1.34-3.67,4.72-2.91,7.75.68,2.73,2.16,5.24,14.39,5.24,11.89,0,21.78-14.67,36.38-16,13-1.24,13.38,11.2,1.61,14.71-10.82,3.23-38.71,5.47-56.43,10.73-16.74,5-30.6,17.95-34.2,22.92-3.18,4.39-5.09,12.61.07,15.5,5,2.82,11.4.37,17.26-10.56,5.38-10,6.67-28.07,41.69-30.52,41-2.86,57.4-7.41,52.88-22.36-4-13.24-29.75-2.95-41,5.18-10.24,7.38-18.72,6.95-21,1.43C84.63,291.63,81.05,290.63,77.8,292.28Z"/><path class="cls-2" d="M149,169.17c-4.44-5.83-23.88,1.1-42.13-19.25-14.21-15.83,1.34-16.77,10.51-23.92,10.57-8.24,7.12-24.71-3.78-29.14-9-3.66-17.15-1.3-27.06.78s-26.25,2.24-32.68,1C36.94,95.3,38,83.25,27.1,81.54c-5.49-.86-10.16,4.3-7.77,8.67a7.75,7.75,0,0,0,3.85,3.25c8.07,3.62,26.11,4.66,32.57,6.78,4.68,1.52,3.45,5.08.16,6.37-10.48,4.09-37.83,15.56-37.51,23.9.25,6.34,12.06,2.07,18.6,12.83,6.37,10.48,7.85,14.37,12.48,13.6,4.16-.7,6.74-4.45,7.49-13.4s13.46-41.76,37-44.9c14.22-1.9,18.6,5.39,20,10.22a2.08,2.08,0,0,1-2.77,2.51c-4.76-1.87-13.61-4.64-20.39-2.57-8,2.46-4.83,9.57,1.44,7.91,4.29-1.14,7.14-4.75,12-4.75,4.33,0,10.05,1.65,8.77,6.89-1.37,5.61-12.49,8.26-18,5.69s-12-4.39-13.21-.29c-1,3.54,1.59,6.32,9.88,6,4.48-.16,7.74-.47,9.94-.76a1.28,1.28,0,0,1,1,2.24c-3.4,3.05-10.72,8.06-25.31,12.7-21.79,6.92-14.12,8.29-21.44,16.07C50,166.79,41,165.05,32.32,166.14c-7.87,1-10.94,6.25-7.9,9.16,2.47,2.37,5.88,1.58,12.44-3.87,5.72-4.75,24.7-10.71,32.22-8,6,2.2,3.48,7.25-.47,9.16-2.86,1.37-6.1,2.1-6.1,6,0,4.27,9.2,3.56,9.2,10.38,0,5.79-7.17,5.72-9.31.79-1.91-4.42-7.92-9.08-12.8-5.14s.33,8.94,5.65,9.87c7.16,1.24,8.17,5.8,14.66,5.42,6-.36,6.31-7.82,11.56-9.5,5.47-1.74,9.51,1.7,14,3.42,5.26,2,8-4.19,4.56-5.66s-4.62-1.7-8.49-.91c-3.67.76-2.19-2.36-.34-4.72,2.2-2.81,3.51-8.94-1.9-12.21s5-6.66,3.64-11.68-7.35.17-12.85-.55c-5.15-.68-7.47-3.94-5.92-8.25,2-5.54,10.09-5.95,18.36-4.13,8.67,1.9,14.69,8.58,19.68,14.87,5.16,6.49,12.8,16.24,24.3,18.48C148.21,181.41,152.84,174.17,149,169.17Zm-90.67-51.6c-2.11,3.06-5.39,6.87-6.69,12.2-1.23,5.07-.46,15-4.45,16.43s-7.51-3-11.81-7.16c-4.06-3.92-6.18-4.47-6.18-9.31,0-6.09,17.62-17.74,23.15-19.88S62.13,112.12,58.37,117.57Z"/></g></svg>